<?xml version="1.0" encoding="utf-8"?>
<!-- Generator: Adobe Illustrator 26.2.1, SVG Export Plug-In . SVG Version: 6.00 Build 0)  -->
<svg version="1.1" id="Layer_1" xmlns="http://www.w3.org/2000/svg" xmlns:xlink="http://www.w3.org/1999/xlink" x="0px" y="0px"
	 viewBox="0 0 500 500" style="enable-background:new 0 0 500 500;" xml:space="preserve">
<g>
	<g>
		<path d="M250,318.2c-87.7,0-159.1-71.4-159.1-159.1S162.3,0,250,0s159.1,71.4,159.1,159.1S337.7,318.2,250,318.2z M250,45.3
			c-62.6,0-113.6,51-113.6,113.6s51,113.6,113.6,113.6s113.6-51,113.6-113.6S312.6,45.3,250,45.3z"/>
	</g>
	<g>
		<path d="M477.3,500h-45.5c0-100.3-81.5-181.8-181.8-181.8S68.2,399.7,68.2,500H22.7c0-125.4,102-227.3,227.3-227.3
			S477.3,374.6,477.3,500z"/>
	</g>
</g>
</svg>
