<?xml version="1.0" encoding="utf-8"?>
<!-- Generator: Adobe Illustrator 26.2.1, SVG Export Plug-In . SVG Version: 6.00 Build 0)  -->
<svg version="1.1" id="Layer_1" xmlns="http://www.w3.org/2000/svg" xmlns:xlink="http://www.w3.org/1999/xlink" x="0px" y="0px"
	 viewBox="0 0 500 500" style="enable-background:new 0 0 500 500;" xml:space="preserve">
<style type="text/css">
	.cart{fill-rule:evenodd;clip-rule:evenodd;}
</style>
<path class="cart" d="M223.1,68.6c8.1,8.1,8.1,21.3,0,29.5l-68.6,68.6h191.1l-68.6-68.6c-8.1-8.1-8.1-21.3,0-29.5
	c8.1-8.1,21.3-8.1,29.5,0l98.1,98.1h74.7c11.5,0,20.8,9.3,20.8,20.8s-9.3,20.8-20.8,20.8h-3.4l-32.3,177.8
	c-5.4,29.7-31.3,51.3-61.5,51.3H118.1c-30.2,0-56.1-21.6-61.5-51.3L24.3,208.3h-3.4C9.3,208.3,0,199,0,187.5s9.3-20.8,20.8-20.8
	h74.7l98.1-98.1C201.7,60.5,214.9,60.5,223.1,68.6z M66.6,208.3l31,170.4c1.8,9.9,10.4,17.1,20.5,17.1h263.8
	c10.1,0,18.7-7.2,20.5-17.1l31-170.4H66.6z M152.8,250.3c11.3-1.9,22.1,5.8,24,17.1l10.4,62.5c1.9,11.4-5.8,22.1-17.1,24
	c-11.3,1.9-22.1-5.8-24-17.1l-10.4-62.5C133.8,262.9,141.5,252.2,152.8,250.3z M347.2,250.3c11.4,1.9,19,12.6,17.1,24l-10.4,62.5
	c-1.9,11.4-12.6,19-24,17.1c-11.3-1.9-19-12.6-17.1-24l10.4-62.5C325.1,256.1,335.8,248.4,347.2,250.3z M250,250
	c11.5,0,20.8,9.3,20.8,20.8v62.5c0,11.5-9.3,20.8-20.8,20.8s-20.8-9.3-20.8-20.8v-62.5C229.2,259.3,238.5,250,250,250z"/>
</svg>
