<?xml version="1.0" encoding="utf-8"?>
<!-- Generator: Adobe Illustrator 26.2.1, SVG Export Plug-In . SVG Version: 6.00 Build 0)  -->
<svg version="1.1" id="Layer_1" xmlns="http://www.w3.org/2000/svg" xmlns:xlink="http://www.w3.org/1999/xlink" x="0px" y="0px"
	 viewBox="0 0 500 500" style="enable-background:new 0 0 500 500;" xml:space="preserve">
<style type="text/css">
	.st0{fill:#231F20;}
</style>
<path class="hamburger" d="M15.6,93.8h468.8c8.6,0,15.6-7,15.6-15.6s-7-15.6-15.6-15.6H15.6C7,62.5,0,69.5,0,78.1S7,93.8,15.6,93.8z"/>
<path class="hamburger" d="M15.6,437.5h468.8c8.6,0,15.6-7,15.6-15.6s-7-15.6-15.6-15.6H15.6c-8.6,0-15.6,7-15.6,15.6S7,437.5,15.6,437.5z
	"/>
<path class="hamburger" d="M15.6,265.6h468.8c8.6,0,15.6-7,15.6-15.6c0-8.6-7-15.6-15.6-15.6H15.6C7,234.4,0,241.4,0,250
	C0,258.6,7,265.6,15.6,265.6z"/>
</svg>
