<?xml version="1.0" encoding="utf-8"?>
<!-- Generator: Adobe Illustrator 26.2.1, SVG Export Plug-In . SVG Version: 6.00 Build 0)  -->
<svg version="1.1" id="Layer_1" xmlns="http://www.w3.org/2000/svg" xmlns:xlink="http://www.w3.org/1999/xlink" x="0px" y="0px"
	 viewBox="0 0 500 500" style="enable-background:new 0 0 500 500;" xml:space="preserve">
<style type="text/css">
	.search{fill:#35353D;}
</style>
<g id="Layer_2_00000021121121236984262970000002528352459540532879_">
	<g id="Layer_1-2">
		<path class="search" d="M494.7,465.2L370.2,340.8c73-89.2,59.8-220.7-29.5-293.7S120-12.7,47.1,76.5s-59.8,220.7,29.5,293.7
			c76.9,62.8,187.4,62.8,264.2,0l124.5,124.5c8.6,7.7,21.8,6.9,29.5-1.7C501.8,485.1,501.8,473.1,494.7,465.2z M209,375.7
			c-92.1,0-166.9-74.6-166.9-166.7S116.7,42.1,208.8,42.1s166.9,74.6,166.9,166.7c0,0.1,0,0.1,0,0.2C375.6,301,301,375.6,209,375.7z
			"/>
	</g>
</g>
</svg>
