<?xml version="1.0" encoding="utf-8"?>
<!-- Generator: Adobe Illustrator 26.2.1, SVG Export Plug-In . SVG Version: 6.00 Build 0)  -->
<svg version="1.1" id="Layer_1" xmlns="http://www.w3.org/2000/svg" xmlns:xlink="http://www.w3.org/1999/xlink" x="0px" y="0px"
	 viewBox="0 0 500 500" style="enable-background:new 0 0 500 500;" xml:space="preserve">
<g>
	<path id="i-2187" d="M250,0C112.2,0,0,112.2,0,250s112.2,250,250,250s250-112.2,250-250S387.8,0,250,0z M250,479.2
		C123.6,479.2,20.8,376.4,20.8,250S123.6,20.8,250,20.8S479.2,123.6,479.2,250S376.4,479.2,250,479.2z M250,135.4
		c-63.2,0-114.6,51.4-114.6,114.6S186.8,364.6,250,364.6S364.6,313.2,364.6,250S313.2,135.4,250,135.4z M250,343.8
		c-51.7,0-93.8-42.1-93.8-93.8s42.1-93.8,93.8-93.8s93.8,42.1,93.8,93.8S301.7,343.8,250,343.8z M250,378.5v20.8
		c-82.3,0-149.3-67-149.3-149.3h20.8C121.5,320.8,179.2,378.5,250,378.5z M399.3,250h-20.8c0-70.8-57.6-128.5-128.5-128.5v-20.8
		C332.3,100.7,399.3,167.7,399.3,250z M250,413.2V434c-101.5,0-184-82.6-184-184h20.8C86.8,340,160,413.2,250,413.2z M434,250h-20.8
		c0-90-73.2-163.2-163.2-163.2V66C351.5,66,434,148.5,434,250z M250,447.9v20.8c-120.6,0-218.8-98.1-218.8-218.8h20.8
		C52.1,359.1,140.9,447.9,250,447.9z M468.8,250h-20.8c0-109.1-88.8-197.9-197.9-197.9V31.2C370.6,31.2,468.8,129.4,468.8,250z
		 M250,218.8c-17.2,0-31.2,14-31.2,31.2s14,31.2,31.2,31.2s31.2-14,31.2-31.2S267.2,218.8,250,218.8z M250,260.4
		c-5.8,0-10.4-4.7-10.4-10.4s4.7-10.4,10.4-10.4s10.4,4.7,10.4,10.4S255.8,260.4,250,260.4z"/>
</g>
</svg>
